<?xml version="1.0" standalone="no"?>
<!DOCTYPE svg PUBLIC "-//W3C//DTD SVG 20010904//EN"
 "http://www.w3.org/TR/2001/REC-SVG-20010904/DTD/svg10.dtd">
<svg version="1.0" xmlns="http://www.w3.org/2000/svg"
 width="9000.000000pt" height="10000.000000pt" viewBox="0 0 9000.000000 10000.000000"
 preserveAspectRatio="xMidYMid meet">
<metadata>
Created by potrace 1.16, written by Peter Selinger 2001-2019
</metadata>
<g transform="translate(0.000000,10000.000000) scale(0.100000,-0.100000)"
fill="#000000" stroke="none">
<path d="M42888 62435 l-138 -11 -102 -54 c-176 -91 -274 -167 -473 -365 -168
-168 -314 -351 -480 -600 -312 -471 -572 -1024 -977 -2079 -110 -285 -171
-479 -248 -781 -412 -1617 -545 -2200 -615 -2695 -19 -135 -39 -276 -45 -315
-16 -116 -58 -484 -84 -755 -43 -434 -55 -575 -76 -880 -11 -162 -22 -333 -26
-380 -3 -46 -9 -89 -14 -95 -10 -11 -16 -192 -7 -201 3 -3 3 -220 0 -482 -6
-465 3 -772 28 -1075 10 -118 10 -129 -6 -141 -17 -12 -17 -17 -2 -91 9 -43
22 -82 29 -86 17 -11 38 -178 25 -199 -10 -18 17 -170 32 -180 11 -6 27 -67
36 -135 3 -27 15 -94 26 -148 12 -54 18 -101 15 -104 -3 -4 -43 -1 -88 5 -102
15 -207 15 -358 2 -63 -6 -178 -15 -255 -20 -172 -11 -441 -66 -740 -151 -378
-108 -585 -187 -887 -341 -257 -131 -724 -455 -883 -613 -46 -46 -139 -129
-207 -186 -68 -57 -145 -124 -172 -149 -84 -78 -421 -441 -421 -453 0 -7 -21
-41 -47 -77 -262 -370 -477 -744 -713 -1245 -60 -127 -205 -495 -255 -647 -22
-64 -45 -130 -53 -145 -16 -32 -66 -199 -71 -241 -2 -15 -13 -63 -25 -107 -54
-202 -102 -424 -121 -561 -11 -82 -25 -176 -31 -209 -14 -84 -31 -524 -24
-620 10 -124 44 -405 56 -450 55 -214 115 -371 192 -505 78 -135 125 -196 228
-296 99 -95 150 -131 261 -184 102 -49 131 -54 435 -80 333 -28 392 -27 538
11 293 74 507 173 775 357 285 196 881 738 1086 987 144 176 276 327 336 385
83 82 268 311 268 333 0 4 -7 4 -16 0 -8 -3 16 39 53 93 327 469 428 622 615
934 74 124 175 297 223 385 48 88 112 205 143 260 30 55 137 264 237 465 166
332 220 446 385 813 29 64 57 120 63 124 7 4 8 -25 3 -88 -50 -655 -59 -1008
-38 -1549 21 -566 46 -752 158 -1203 66 -266 131 -419 342 -807 112 -206 191
-329 245 -382 88 -85 440 -316 544 -357 82 -32 235 -64 308 -64 167 0 515 141
742 299 245 171 338 249 547 457 525 523 764 823 1117 1407 68 113 181 286
252 385 169 240 409 599 501 753 21 34 39 62 41 62 2 0 1 -114 -2 -252 -6
-242 4 -464 27 -613 5 -33 14 -112 20 -175 43 -439 147 -886 248 -1060 66
-112 170 -260 224 -316 38 -40 56 -67 53 -77 -8 -20 126 -130 148 -121 9 3 29
-3 44 -13 74 -51 216 -124 288 -148 177 -59 277 -75 461 -75 167 0 176 1 332
40 170 42 226 64 442 167 172 82 285 146 431 245 91 61 141 104 228 198 62 66
110 120 106 120 -3 0 28 38 69 84 75 85 210 263 277 366 36 54 191 299 259
409 66 105 101 172 94 182 -3 5 -1 15 4 22 29 37 142 306 220 528 103 290 149
477 187 749 14 102 37 248 52 325 26 134 27 154 28 479 l1 339 98 47 c54 27
105 59 114 72 37 55 108 108 185 139 43 18 97 47 119 66 50 42 133 90 218 127
174 76 474 229 547 279 88 60 154 96 273 150 193 87 360 197 600 397 63 52
148 121 188 153 122 98 731 711 943 949 228 258 426 509 487 620 23 42 72 110
109 151 38 40 104 123 148 183 72 98 80 106 83 82 4 -31 -18 -143 -88 -463
-85 -386 -116 -590 -149 -980 -54 -629 -71 -1083 -71 -1824 0 -608 7 -779 40
-1031 58 -434 105 -623 242 -968 166 -421 254 -595 433 -866 164 -245 210
-294 344 -358 58 -28 147 -75 196 -104 95 -56 250 -112 388 -140 62 -13 119
-15 265 -11 170 4 197 7 302 36 189 51 237 70 412 156 332 165 722 469 984
770 92 104 155 183 364 455 463 600 502 659 674 1031 140 303 178 383 322 674
68 138 124 259 124 271 0 24 -18 44 -41 44 -9 0 -36 -28 -60 -61 -138 -192
-292 -395 -419 -549 -79 -96 -182 -222 -229 -280 -236 -289 -530 -511 -958
-723 -402 -199 -516 -230 -719 -193 -44 8 -106 18 -139 21 -148 16 -359 108
-500 217 -84 65 -194 179 -240 249 -157 238 -353 768 -435 1178 -49 245 -77
739 -61 1082 17 368 37 563 102 1034 64 463 71 515 99 690 76 475 101 653 115
800 21 215 36 312 100 635 30 151 66 346 80 434 26 157 96 491 134 642 11 43
29 125 40 181 26 129 99 349 201 603 43 109 81 219 85 246 11 73 70 225 131
335 30 53 58 108 63 122 45 119 231 296 576 551 44 33 118 92 165 132 288 244
668 443 1287 675 345 129 595 209 1023 328 63 18 171 50 240 71 485 149 780
211 1170 245 210 19 302 36 145 29 -127 -7 -557 -59 -695 -84 -173 -32 -474
-68 -660 -80 -436 -27 -747 -67 -1117 -146 -266 -56 -747 -150 -1128 -219
-192 -35 -417 -78 -499 -95 -171 -35 -176 -35 -176 -16 0 36 101 310 228 622
255 623 364 944 457 1349 15 66 31 125 35 130 5 6 15 48 25 95 9 47 38 177 65
290 26 113 67 291 90 395 23 105 51 226 62 270 32 126 39 411 14 587 -30 208
-75 372 -134 488 -30 58 -69 148 -88 200 -45 120 -90 195 -173 283 -80 85
-163 141 -249 167 -56 17 -93 20 -286 20 -248 0 -285 -6 -384 -65 -173 -102
-429 -352 -560 -545 -149 -221 -228 -388 -346 -738 -82 -239 -129 -371 -151
-417 -18 -40 -98 -440 -129 -650 -26 -177 -55 -425 -81 -705 -9 -91 -24 -235
-35 -321 -11 -86 -24 -226 -30 -310 -15 -212 -21 -1412 -7 -1465 13 -53 3 -90
-36 -129 -23 -23 -46 -35 -77 -40 -25 -4 -97 -20 -160 -35 -147 -37 -325 -71
-570 -110 -107 -17 -298 -49 -425 -70 -292 -50 -339 -57 -568 -80 -103 -11
-193 -22 -199 -26 -15 -10 -3 -324 16 -441 9 -48 25 -167 37 -263 20 -171 34
-220 63 -220 31 0 449 63 571 86 238 44 368 63 545 79 96 8 191 19 210 25 50
13 486 90 516 90 24 0 24 -1 24 -85 0 -96 -33 -334 -57 -410 -16 -53 -84 -215
-211 -505 -42 -96 -190 -401 -330 -678 -162 -322 -274 -557 -312 -655 -199
-521 -297 -726 -475 -997 -195 -297 -363 -504 -663 -815 -54 -55 -189 -197
-301 -315 -113 -118 -234 -242 -270 -275 -36 -33 -102 -98 -146 -145 -153
-163 -248 -251 -349 -322 -55 -39 -116 -84 -134 -99 -17 -16 -91 -68 -162
-116 -71 -49 -165 -112 -207 -141 -308 -210 -776 -430 -1123 -527 -202 -56
-197 -55 -214 -41 -8 6 -33 58 -56 115 -23 58 -53 118 -66 135 -14 16 -56 91
-94 167 -40 78 -91 163 -120 199 -88 105 -212 219 -280 257 -36 20 -91 54
-123 76 -98 66 -141 80 -237 80 -47 0 -123 -7 -170 -17 -182 -35 -261 -76
-394 -204 -119 -113 -146 -184 -146 -387 0 -182 41 -393 83 -429 7 -6 26 -30
42 -54 37 -56 177 -188 249 -236 104 -69 295 -145 434 -173 70 -14 135 -32
144 -40 9 -8 20 -34 23 -56 4 -23 20 -100 35 -172 44 -202 54 -305 47 -519 -3
-105 -11 -227 -17 -271 -15 -106 -78 -401 -90 -423 -13 -22 -70 -190 -74 -217
-14 -93 -120 -348 -204 -489 -115 -191 -361 -523 -428 -575 -35 -28 -193 -108
-267 -136 -154 -58 -388 -82 -565 -59 -64 8 -148 19 -187 24 -130 16 -277 93
-372 193 -114 121 -180 229 -232 384 -44 134 -59 203 -91 438 -57 418 -58 617
-5 915 48 268 153 680 225 881 61 168 231 534 347 744 146 265 238 425 275
479 65 97 322 438 406 539 88 107 430 454 535 543 239 202 559 412 788 514 64
29 129 63 145 76 l29 23 -24 1 c-30 0 -315 -85 -526 -157 -293 -101 -696 -265
-806 -329 -109 -64 -315 -211 -579 -415 -292 -226 -655 -574 -810 -778 -52
-69 -156 -202 -231 -295 -223 -281 -197 -241 -457 -723 -111 -205 -209 -356
-516 -793 -56 -80 -122 -193 -183 -315 -104 -208 -166 -308 -283 -460 -104
-135 -130 -175 -329 -505 -95 -157 -212 -341 -260 -410 -48 -69 -106 -152
-128 -185 -23 -33 -101 -128 -174 -210 -74 -83 -164 -189 -200 -235 -130 -166
-356 -363 -500 -436 -38 -18 -115 -47 -171 -64 -57 -16 -127 -39 -156 -50 -72
-28 -155 -35 -227 -20 -92 19 -275 89 -326 126 -65 47 -165 160 -324 365 -33
42 -81 104 -107 137 -33 42 -63 99 -97 184 -47 118 -118 281 -182 419 -17 36
-30 74 -28 85 5 33 -44 154 -63 154 -13 0 -25 28 -52 113 -20 61 -56 176 -81
253 -89 282 -158 736 -157 1044 0 559 3 645 22 845 11 116 25 278 30 360 11
167 60 543 91 699 77 387 263 994 464 1516 37 96 107 285 155 420 136 378 194
530 311 805 102 239 119 284 223 599 109 327 131 386 259 686 144 338 400
1103 576 1720 27 96 79 279 116 405 96 333 153 538 256 930 68 255 132 466
229 755 60 179 118 363 129 410 11 47 36 141 56 210 73 252 184 716 250 1043
25 126 38 225 45 340 52 890 57 1238 21 1482 -12 83 -26 163 -32 180 -5 16
-48 88 -95 160 -47 71 -129 198 -183 280 -132 201 -164 234 -266 269 -108 37
-203 80 -275 122 -67 39 -77 40 -312 19z m13030 -2025 c22 -42 23 -53 18 -155
-8 -178 -89 -607 -128 -679 -6 -11 -17 -47 -24 -80 -8 -34 -29 -115 -48 -181
-33 -118 -134 -537 -196 -810 -17 -77 -49 -203 -70 -280 -21 -77 -43 -167 -50
-200 -11 -59 -42 -175 -60 -225 -11 -33 -35 -116 -115 -400 -88 -314 -143
-488 -157 -496 -24 -15 -1 352 37 611 20 132 45 296 55 365 10 69 25 166 34
215 8 50 18 119 21 155 10 96 52 366 80 515 13 72 33 186 45 255 11 69 36 193
55 275 54 237 87 394 101 480 28 168 102 391 158 475 42 64 114 157 143 186
38 38 73 30 101 -26z m-13067 -957 c40 -24 53 -56 87 -223 60 -285 61 -351 21
-760 -32 -325 -96 -607 -324 -1425 -166 -595 -235 -798 -430 -1260 -54 -126
-119 -284 -145 -350 -115 -291 -210 -508 -291 -667 -61 -118 -224 -368 -240
-368 -9 0 -11 86 -6 369 10 553 31 796 101 1191 171 959 201 1114 247 1290 46
178 143 490 236 760 47 135 107 315 134 400 28 85 68 211 91 280 51 158 93
253 181 405 81 140 210 332 239 358 26 22 62 22 99 0z m-3127 -9384 c160 -13
214 -27 238 -60 17 -22 18 -31 8 -70 -7 -24 -16 -79 -21 -122 -7 -67 -20 -102
-83 -235 -92 -195 -117 -254 -168 -401 -129 -369 -588 -1312 -908 -1866 -284
-491 -563 -895 -830 -1200 -86 -98 -354 -359 -447 -433 -254 -204 -511 -338
-744 -387 -96 -20 -268 -20 -356 0 -181 42 -347 174 -446 355 -50 91 -84 184
-115 319 -24 107 -26 134 -27 341 0 202 3 242 28 388 36 211 81 373 152 547
31 77 65 161 75 188 25 65 164 330 240 457 258 431 643 876 1052 1219 425 355
855 620 1273 783 379 149 733 207 1079 177z m8630 -569 c65 -61 96 -110 96
-150 0 -21 -3 -22 -47 -17 -92 11 -331 130 -327 162 2 11 156 62 191 64 14 1
46 -21 87 -59z"/>
<path d="M89905 50068 c-78 -33 -93 -52 -91 -117 0 -23 -3 -43 -9 -45 -5 -3
-4 -5 3 -5 7 -1 10 -5 7 -11 -3 -5 0 -10 7 -10 8 -1 6 -6 -6 -15 -19 -14 -19
-15 6 -15 17 0 25 5 24 16 -1 16 100 64 136 64 16 0 18 9 18 85 0 62 -3 85
-12 84 -7 0 -45 -14 -83 -31z"/>
<path d="M89849 48793 c-75 -4 -77 -4 -80 -31 -2 -15 -2 -52 1 -82 l5 -55 90
-3 c139 -4 135 -7 135 93 l0 85 -37 -2 c-21 -1 -72 -4 -114 -5z"/>
<path d="M28075 47124 c-140 -19 -195 -29 -297 -55 -357 -89 -716 -291 -950
-534 -304 -316 -475 -643 -550 -1055 -25 -140 -31 -474 -9 -605 50 -312 193
-658 363 -880 107 -140 196 -232 313 -325 32 -25 63 -50 69 -55 6 -6 32 -26
59 -44 26 -18 55 -40 65 -50 66 -70 455 -257 552 -265 19 -2 71 -13 115 -24
182 -46 272 -56 490 -56 225 1 317 11 515 60 706 175 1268 724 1455 1424 80
301 80 654 0 963 -102 390 -329 751 -634 1007 -29 25 -60 51 -67 58 -8 8 -63
46 -122 86 -188 125 -355 202 -592 273 -156 46 -175 51 -250 63 -67 11 -472
22 -525 14z"/>
</g>
</svg>
